<svg width="1200" height="800" viewBox="0 0 1200 800" fill="none" xmlns="http://www.w3.org/2000/svg">
  <rect width="1200" height="800" rx="48" fill="#091622"/>
  <rect x="40" y="40" width="1120" height="720" rx="40" fill="url(#bg)"/>
  <circle cx="950" cy="214" r="178" fill="#285267" fill-opacity="0.8"/>
  <circle cx="286" cy="612" r="210" fill="#1E3D30" fill-opacity="0.72"/>
  <path d="M220 538C332 424 410 366 524 352C638 338 740 376 828 444C872 478 912 530 974 574" stroke="#9AE8BE" stroke-width="20" stroke-linecap="round"/>
  <path d="M290 210C338 168 394 146 458 146C542 146 620 186 684 266" stroke="#C8F5FF" stroke-width="14" stroke-linecap="round"/>
  <text x="104" y="160" fill="#93C7D7" font-size="34" font-family="'Microsoft YaHei', sans-serif" letter-spacing="8">STRESS</text>
  <text x="104" y="304" fill="#F5FBFF" font-size="78" font-family="'Microsoft YaHei', sans-serif" font-weight="700">压力重启</text>
  <text x="104" y="394" fill="#D7E9F8" font-size="36" font-family="'Microsoft YaHei', sans-serif">先稳呼吸，再稳注意力，最后再做决定。</text>
  <text x="104" y="458" fill="#B6CEE8" font-size="28" font-family="'Microsoft YaHei', sans-serif">给自己几分钟的缓冲，系统就不会只剩下“硬扛”。</text>
  <defs>
    <linearGradient id="bg" x1="86" y1="52" x2="1080" y2="748" gradientUnits="userSpaceOnUse">
      <stop stop-color="#102335"/>
      <stop offset="1" stop-color="#0E1726"/>
    </linearGradient>
  </defs>
</svg>
