<svg xmlns="http://www.w3.org/2000/svg" width="640" height="640" viewBox="0 0 640 640" role="img" aria-label="жқӯе·һеёӮиҗ§еұұеҢәзІҫзҘһеҚ«з”ҹдёӯеҝғ">
  <defs>
    <linearGradient id="bg" x1="0%" y1="0%" x2="100%" y2="100%">
      <stop offset="0%" stop-color="#112c43" />
      <stop offset="100%" stop-color="#07121f" />
    </linearGradient>
    <linearGradient id="coverShade" x1="0%" y1="0%" x2="0%" y2="100%">
      <stop offset="0%" stop-color="rgba(7,12,22,0.10)" />
      <stop offset="48%" stop-color="rgba(7,12,22,0.22)" />
      <stop offset="100%" stop-color="rgba(7,12,22,0.68)" />
    </linearGradient>
    <linearGradient id="panelGlow" x1="0%" y1="0%" x2="100%" y2="0%">
      <stop offset="0%" stop-color="rgba(255,255,255,0.12)" />
      <stop offset="100%" stop-color="rgba(255,255,255,0)" />
    </linearGradient>
    <clipPath id="frameClip">
      <rect x="20" y="20" width="600" height="600" rx="36" />
    </clipPath>
  </defs>
  <rect width="640" height="640" rx="44" fill="url(#bg)" />
  <g clip-path="url(#frameClip)">
    <image href="/assets/psy-centers/anime/center-campus.png" x="20" y="20" width="600" height="600" preserveAspectRatio="xMidYMid slice" />
    <rect x="20" y="20" width="600" height="600" fill="rgba(6, 12, 20, 0.12)" />
    <rect x="20" y="20" width="600" height="600" fill="url(#coverShade)" />
    <rect x="20" y="20" width="600" height="600" fill="rgba(87, 210, 205, 0.22)" opacity="0.18" />
  </g>

  <circle cx="118" cy="120" r="96" fill="rgba(255,255,255,0.05)" />
  <circle cx="514" cy="112" r="116" fill="rgba(87, 210, 205, 0.22)" opacity="0.54" />
  <path d="M82 372 C168 281 292 251 454 291 C502 303 542 329 574 362" fill="none" stroke="#a4e68d" stroke-width="14" stroke-linecap="round" opacity="0.94" />
  <path d="M82 382 C168 291 292 261 454 301 C502 313 542 339 574 372" fill="none" stroke="#7bd2ca" stroke-width="8" stroke-linecap="round" opacity="0.7" />
  <circle cx="499" cy="490" r="24" fill="rgba(255,255,255,0.08)" />
  <path d="M491 490 H507 M499 482 V498" stroke="#dfc48b" stroke-width="5" stroke-linecap="round" />

  <rect x="20" y="20" width="600" height="600" rx="36" fill="rgba(255,255,255,0.02)" stroke="rgba(180,206,236,0.18)" />
  <rect x="44" y="44" width="92" height="30" rx="15" fill="rgba(10,18,30,0.42)" stroke="rgba(171,192,228,0.14)" />
  <text x="90" y="64" text-anchor="middle" font-size="17" font-weight="700" font-family="Microsoft YaHei, PingFang SC, Noto Sans SC, sans-serif" fill="#eef7ff">жқӯе·һ</text>
  <rect x="484" y="44" width="110" height="30" rx="15" fill="rgba(10,18,30,0.40)" stroke="rgba(171,192,228,0.14)" />
  <text x="539" y="64" text-anchor="middle" font-size="15" font-weight="600" font-family="Microsoft YaHei, PingFang SC, Noto Sans SC, sans-serif" fill="#a4e68d">зІҫзҘһеҚ«з”ҹ</text>

  <rect x="450" y="86" width="144" height="34" rx="17" fill="rgba(11, 18, 32, 0.40)" stroke="rgba(171,192,228,0.18)" />
  <text x="522" y="109" text-anchor="middle" font-size="16" font-weight="600" font-family="Microsoft YaHei, PingFang SC, Noto Sans SC, sans-serif" fill="#dfc48b">дјҳе…ҲиҒ”зі»</text>

  <rect x="40" y="426" width="560" height="168" rx="28" fill="rgba(7,12,22,0.58)" stroke="rgba(171,192,228,0.16)" />
  <rect x="56" y="444" width="140" height="4" rx="2" fill="#a4e68d" opacity="0.94" />
  <rect x="56" y="456" width="212" height="28" rx="14" fill="rgba(255,255,255,0.08)" />
  <text x="162" y="475" text-anchor="middle" font-size="14" font-weight="600" font-family="Microsoft YaHei, PingFang SC, Noto Sans SC, sans-serif" fill="#dfc48b">еҝғзҗҶдёӯеҝғж”ҜжҢҒе…ҘеҸЈ</text>
  <text x='56' y='482' font-size='34' font-weight='700' font-family='Microsoft YaHei, PingFang SC, Noto Sans SC, sans-serif' fill='#f5fbff'>иҗ§еұұеҢәзІҫзҘһеҚ«з”?/text><text x='56' y='524' font-size='34' font-weight='700' font-family='Microsoft YaHei, PingFang SC, Noto Sans SC, sans-serif' fill='#f5fbff'>дёӯеҝғ</text>
  <text x="56" y="576" font-size="20" font-weight="500" font-family="Microsoft YaHei, PingFang SC, Noto Sans SC, sans-serif" fill="#9bc6df">иҗ§еұұеҢ?В· ж”ҝеҠЎзӣ®еҪ•</text>
  <rect x="56" y="594" width="116" height="28" rx="14" fill="rgba(255,255,255,0.08)" />
  <text x="114" y="613" text-anchor="middle" font-size="14" font-weight="600" font-family="Microsoft YaHei, PingFang SC, Noto Sans SC, sans-serif" fill="#eef7ff">еҸҜиҒ”зі»жңәжһ?/text>
  <rect x="56" y="632" width="220" height="2" rx="1" fill="url(#panelGlow)" />
</svg>
