<svg xmlns="http://www.w3.org/2000/svg" width="640" height="640" viewBox="0 0 640 640" role="img" aria-label="зҰҸе·һеёӮй•ҝд№җеҢәз¬¬е…ӯеҢ»йҷў">
  <defs>
    <linearGradient id="bg" x1="0%" y1="0%" x2="100%" y2="100%">
      <stop offset="0%" stop-color="#123148" />
      <stop offset="100%" stop-color="#07121f" />
    </linearGradient>
    <linearGradient id="coverShade" x1="0%" y1="0%" x2="0%" y2="100%">
      <stop offset="0%" stop-color="rgba(7,12,22,0.10)" />
      <stop offset="48%" stop-color="rgba(7,12,22,0.22)" />
      <stop offset="100%" stop-color="rgba(7,12,22,0.68)" />
    </linearGradient>
    <linearGradient id="panelGlow" x1="0%" y1="0%" x2="100%" y2="0%">
      <stop offset="0%" stop-color="rgba(255,255,255,0.12)" />
      <stop offset="100%" stop-color="rgba(255,255,255,0)" />
    </linearGradient>
    <clipPath id="frameClip">
      <rect x="20" y="20" width="600" height="600" rx="36" />
    </clipPath>
  </defs>
  <rect width="640" height="640" rx="44" fill="url(#bg)" />
  <g clip-path="url(#frameClip)">
    <image href="/assets/psy-centers/anime/hospital-specialty.png" x="20" y="20" width="600" height="600" preserveAspectRatio="xMidYMid slice" />
    <rect x="20" y="20" width="600" height="600" fill="rgba(6, 12, 20, 0.12)" />
    <rect x="20" y="20" width="600" height="600" fill="url(#coverShade)" />
    <rect x="20" y="20" width="600" height="600" fill="rgba(72, 190, 255, 0.22)" opacity="0.18" />
  </g>

  <circle cx="118" cy="120" r="96" fill="rgba(255,255,255,0.05)" />
  <circle cx="514" cy="112" r="116" fill="rgba(72, 190, 255, 0.22)" opacity="0.54" />
  <path d="M82 366 C168 272 292 242 454 282 C502 294 542 320 574 356" fill="none" stroke="#87edd8" stroke-width="14" stroke-linecap="round" opacity="0.94" />
  <path d="M82 376 C168 282 292 252 454 292 C502 304 542 330 574 366" fill="none" stroke="#7ed2ff" stroke-width="8" stroke-linecap="round" opacity="0.7" />
  <circle cx="515" cy="490" r="24" fill="rgba(255,255,255,0.08)" />
  <path d="M507 490 H523 M515 482 V498" stroke="#efb98f" stroke-width="5" stroke-linecap="round" />

  <rect x="20" y="20" width="600" height="600" rx="36" fill="rgba(255,255,255,0.02)" stroke="rgba(180,206,236,0.18)" />
  <rect x="44" y="44" width="92" height="30" rx="15" fill="rgba(10,18,30,0.42)" stroke="rgba(171,192,228,0.14)" />
  <text x="90" y="64" text-anchor="middle" font-size="17" font-weight="700" font-family="Microsoft YaHei, PingFang SC, Noto Sans SC, sans-serif" fill="#eef7ff">зҰҸе·һ</text>
  <rect x="484" y="44" width="110" height="30" rx="15" fill="rgba(10,18,30,0.40)" stroke="rgba(171,192,228,0.14)" />
  <text x="539" y="64" text-anchor="middle" font-size="15" font-weight="600" font-family="Microsoft YaHei, PingFang SC, Noto Sans SC, sans-serif" fill="#87edd8">дё“з§‘еҢ»йҷў</text>

  <rect x="40" y="426" width="560" height="168" rx="28" fill="rgba(7,12,22,0.58)" stroke="rgba(171,192,228,0.16)" />
  <rect x="56" y="444" width="140" height="4" rx="2" fill="#87edd8" opacity="0.94" />
  <rect x="56" y="456" width="212" height="28" rx="14" fill="rgba(255,255,255,0.08)" />
  <text x="162" y="475" text-anchor="middle" font-size="14" font-weight="600" font-family="Microsoft YaHei, PingFang SC, Noto Sans SC, sans-serif" fill="#efb98f">еҝғзҗҶдёӯеҝғж”ҜжҢҒе…ҘеҸЈ</text>
  <text x='56' y='482' font-size='42' font-weight='700' font-family='Microsoft YaHei, PingFang SC, Noto Sans SC, sans-serif' fill='#f5fbff'>й•ҝд№җеҢәз¬¬е…ӯеҢ»йҷ?/text>
  <text x="56" y="542" font-size="20" font-weight="500" font-family="Microsoft YaHei, PingFang SC, Noto Sans SC, sans-serif" fill="#9bc6df">й•ҝд№җеҢ?В· ж”ҝеҠЎзӣ®еҪ•</text>
  <rect x="56" y="560" width="116" height="28" rx="14" fill="rgba(255,255,255,0.08)" />
  <text x="114" y="579" text-anchor="middle" font-size="14" font-weight="600" font-family="Microsoft YaHei, PingFang SC, Noto Sans SC, sans-serif" fill="#eef7ff">еҸҜиҒ”зі»жңәжһ?/text>
  <rect x="56" y="598" width="220" height="2" rx="1" fill="url(#panelGlow)" />
</svg>
